<?xml version="1.0" encoding="UTF-8" standalone="no"?>
<!DOCTYPE svg PUBLIC "-//W3C//DTD SVG 1.1//EN" "http://www.w3.org/Graphics/SVG/1.1/DTD/svg11.dtd">
<svg width="100%" height="100%" viewBox="0 0 1000 1000" version="1.1" xmlns="http://www.w3.org/2000/svg" xmlns:xlink="http://www.w3.org/1999/xlink" xml:space="preserve" xmlns:serif="http://www.serif.com/" style="fill-rule:evenodd;clip-rule:evenodd;stroke-linejoin:round;stroke-miterlimit:2;">
    <g transform="matrix(2.393407,0,0,2.393407,-52.786813,-7.786813)">
        <path d="M6.5,423.966C3.427,423.623 2.055,424.633 2.035,421.512C1.99,414.722 2.124,10.502 1.965,4.505C1.885,1.47 3.636,2.034 34.5,2.034C455.885,2.034 455.988,1.982 456.515,2.485C457.581,3.499 456.604,405.227 457.034,421.495C457.115,424.531 455.363,423.966 424.5,423.966C285.167,423.966 145.833,423.966 6.5,423.966Z" style="fill:rgb(7,7,7);"/>
        <path d="M262.052,178.461C260.628,210.549 263.1,327.124 260.846,328.964C260.559,329.199 229.918,330.617 227.977,328.108C226.163,325.762 155.774,225.419 155.575,225.361C152.079,224.334 126.899,259.483 116.976,280.728C98.529,320.218 103.088,329.327 97.497,329.383C58.722,329.769 56.117,330.731 56.992,327.608C63.368,304.845 79.208,275.83 81.555,271.531C120.523,200.153 184.948,166.899 196.27,161.055C236.136,140.478 262.817,133.782 313.51,124.771C313.823,124.715 330.016,121.837 317.258,126.104C309.01,128.862 303.361,126.97 260.284,147.02C253.86,150.009 217.713,166.834 185.558,194.565C181.936,197.688 185.408,198.425 202.424,223.554C210.091,234.878 210.388,234.544 218.018,245.831C220.403,249.358 220.138,250.414 221.641,249.698C222.564,249.259 220.666,182.146 222.357,179.379C223.739,177.118 263.997,154.912 265.506,155.47C267.25,156.116 264.363,156.804 262.052,178.461Z" style="fill:rgb(254,254,254);"/>
        <path d="M94.961,229.499C94.568,240.846 78.547,246.59 56.885,299.831C55.226,303.908 54.811,299.63 54.829,299.477C54.988,298.126 55.162,298.121 55.147,116.5C55.143,73.249 54.766,72.446 56.562,71.831C56.721,71.776 93.471,71.767 94.461,71.862C97.579,72.163 97.086,73.324 117.915,103.207C134.399,126.855 134.642,126.552 150.947,150.193C162.527,166.982 164.795,167.524 162.41,169.391C153.298,176.523 152.799,175.7 143.842,182.925C136.664,188.715 133.355,193.823 130.844,190.262C104.094,152.335 96.399,140.186 95.414,140.229C94.462,140.27 95.07,140.93 95.044,176.499C95.009,225.14 94.978,227.986 94.961,229.499Z" style="fill:rgb(254,254,254);"/>
        <path d="M320.525,114.938C252.098,121.184 225.431,140.395 227.736,134.529C227.974,133.923 237.877,113.688 254.136,100.078C303.329,58.899 378.742,60.899 423.086,113.815C424.868,115.942 422.594,116.9 413.569,126.564C397.219,144.074 396.368,145.249 394.608,143.396C393.424,142.15 387.841,133.929 375.186,125.983C353.901,112.619 329.47,114.776 320.525,114.938Z" style="fill:rgb(254,254,254);"/>
        <path d="M332.483,332.938C326.602,332.512 319.804,332.669 304.478,328.579C289.606,324.61 273.911,315.142 272.517,313.485C271.985,312.852 271.761,312.783 271.805,270.5C271.824,252.981 270.563,252.673 271.636,251.608C273.014,250.242 274.431,255.568 274.815,256.331C297.058,300.532 359.349,308.245 394.06,268.101C397.031,264.665 398.465,267.988 410.651,280.351C421.91,291.775 425.12,293.478 422.354,296.365C387.859,332.367 351.671,333.216 332.483,332.938Z" style="fill:rgb(254,254,254);"/>
    </g>
</svg>
